<?xml version="1.0" encoding="UTF-8" standalone="no"?>
<svg width="901px" height="267px" viewBox="0 0 901 267" version="1.1" xmlns="http://www.w3.org/2000/svg" xmlns:xlink="http://www.w3.org/1999/xlink" xmlns:sketch="http://www.bohemiancoding.com/sketch/ns">
    <!-- Generator: Sketch 3.3.3 (12072) - http://www.bohemiancoding.com/sketch -->
    <title>Group</title>
    <desc>Created with Sketch.</desc>
    <defs></defs>
    <g id="Stethoscope-landscape" stroke="none" stroke-width="1" fill="none" fill-rule="evenodd" sketch:type="MSPage">
        <g id="Group" sketch:type="MSLayerGroup" transform="translate(2.000000, 2.000000)" stroke-width="4">
            <path d="M31,105 L31,202.114528 L65.6745968,202.114528 L65.6745968,177.335705 L102.914492,177.335705 L102.914492,229.675863 L140.496425,229.675863 L140.496425,129.572948 L181.428234,129.572948 L181.428234,193.614545 L207.554169,193.614545 C207.554169,193.614545 207.554168,159.545172 207.554169,159.545171 C207.554169,159.54517 234.938642,132.160697 234.938642,132.160697 L259.892037,157.114092 L259.892037,235.629063 L277.634339,235.629063 L277.634339,136.576429 L314.393944,136.576429 L314.393944,196.821326 L336.454358,196.821326 L336.454358,161.493066 L370.701691,195.740399 L370.701691,214.68912 L398.381457,214.68912 L398.381457,143.586397 L441.487848,143.586397 L441.487848,180.662911 L474.751964,180.662911 L474.751964,140.544427 L517.575215,140.544427 L517.575215,216.6188 L543.400559,216.6188 L543.400559,188.614522 L577.338018,154.677063 L577.338018,199.161847 L600.652797,199.161847 L600.652797,133.602198 L633.443162,133.602198 L633.443162,235.656833 L654.472678,235.656833 L654.472678,159.609099 L681.929672,132.152106 L707.93034,158.152774 L707.93034,194.885199 L732.382854,194.885199 L732.382854,130.606726 L772.393661,130.606726 L772.393661,227.697468 L806.398605,227.697468 L806.398605,176.576063 L848.491166,176.576063 L848.491166,117.614426" id="Line" stroke="#4990E2" stroke-linecap="round" stroke-linejoin="round" sketch:type="MSShapeGroup"></path>
            <path d="M30.5,102 C34.9606944,102 39.1733319,100.937943 42.8988392,99.052901 C44.6824253,98.1504376 46.3543605,97.0593451 47.8884111,95.8058571 C54.0600646,90.7629374 58,83.0915793 58,74.5 C58,59.3121694 45.6878306,47 30.5,47 C15.3121694,47 3,59.3121694 3,74.5 C3,89.6878306 15.3121694,102 30.5,102 Z" id="Oval-1-Copy" stroke="#4990E2" sketch:type="MSShapeGroup"></path>
            <path d="M31,83 C32.2976565,83 33.5231511,82.6910378 34.606935,82.1426621 C35.1257965,81.8801273 35.6121776,81.5627186 36.0584469,81.1980675 C37.853837,79.7310363 39,77.4993685 39,75 C39,70.581722 35.418278,67 31,67 C26.581722,67 23,70.581722 23,75 C23,79.418278 26.581722,83 31,83 Z" id="Oval-1-Copy-2" stroke="#4990E2" sketch:type="MSShapeGroup"></path>
            <path d="M247.332282,54.2660961 C244.953978,51.6455739 241.520704,50 237.703086,50 C230.523384,50 224.703086,55.8202983 224.703086,63 L184,63" id="Oval-4" stroke="#CCCCCC" stroke-linecap="round" stroke-linejoin="round" sketch:type="MSShapeGroup"></path>
            <path d="M642,72 C649.731986,72 656,65.7319865 656,58 C656,50.2680135 649.731986,44 642,44" id="Oval-5-Copy-3" stroke="#CCCCCC" stroke-linecap="round" stroke-linejoin="round" sketch:type="MSShapeGroup"></path>
            <path d="M624,49 C630.351275,49 635.5,43.8512746 635.5,37.5 C635.5,31.1487254 630.351275,26 624,26" id="Oval-5-Copy-4" stroke="#CCCCCC" stroke-linecap="round" stroke-linejoin="round" sketch:type="MSShapeGroup" transform="translate(629.750000, 37.500000) rotate(-90.000000) translate(-629.750000, -37.500000) "></path>
            <path d="M592,55.3454215 C606.359403,55.3454215 618,43.704825 618,29.3454215 C618,20.5065111 613.589377,12.6977568 606.848974,8" id="Oval-5-Copy-5" stroke="#CCCCCC" stroke-linecap="round" stroke-linejoin="round" sketch:type="MSShapeGroup" transform="translate(605.000000, 31.672711) scale(-1, 1) rotate(-90.000000) translate(-605.000000, -31.672711) "></path>
            <path d="M264,78.9924528 C282.777681,78.9924528 298,63.7701343 298,44.9924528 C298,29.059528 287.040572,15.6863147 272.248904,12" id="Oval-5-Copy" stroke="#CCCCCC" stroke-linecap="round" stroke-linejoin="round" sketch:type="MSShapeGroup" transform="translate(281.000000, 45.496226) rotate(-90.000000) translate(-281.000000, -45.496226) "></path>
            <path d="M0.5,251 L881,251" id="Line-Copy-10" stroke="#CCCCCC" stroke-linecap="round" stroke-linejoin="round" sketch:type="MSShapeGroup"></path>
            <path d="M29.9976662,263 L699.002991,263" id="Line-Copy-8" stroke="#CCCCCC" stroke-linecap="round" stroke-linejoin="round" sketch:type="MSShapeGroup"></path>
            <path d="M719.686435,263 L849.002991,263" id="Line-Copy-9" stroke="#CCCCCC" stroke-linecap="round" stroke-linejoin="round" sketch:type="MSShapeGroup"></path>
            <path d="M538.995104,72 L641.130394,72" id="Line-Copy-4" stroke="#CCCCCC" stroke-linecap="round" stroke-linejoin="round" sketch:type="MSShapeGroup"></path>
            <path d="M511.995104,57 L614.130394,57" id="Line-Copy-5" stroke="#CCCCCC" stroke-linecap="round" stroke-linejoin="round" sketch:type="MSShapeGroup"></path>
            <path d="M485.995104,57 L504.247601,57" id="Line-Copy-7" stroke="#CCCCCC" stroke-linecap="round" stroke-linejoin="round" sketch:type="MSShapeGroup"></path>
            <path d="M546.868406,45 L581.130394,45" id="Line-Copy-6" stroke="#CCCCCC" stroke-linecap="round" stroke-linejoin="round" sketch:type="MSShapeGroup"></path>
            <path d="M161.83623,63 L174.130394,63" id="Line-Copy-2" stroke="#CCCCCC" stroke-linecap="round" stroke-linejoin="round" sketch:type="MSShapeGroup"></path>
            <path d="M372.83623,62 L385.130394,62" id="Line-Copy-3" stroke="#CCCCCC" stroke-linecap="round" stroke-linejoin="round" sketch:type="MSShapeGroup"></path>
            <path d="M315.5,62 L363.042088,62" id="Line-Copy" stroke="#CCCCCC" stroke-linecap="round" stroke-linejoin="round" sketch:type="MSShapeGroup"></path>
            <g id="Imported-Layers" transform="translate(801.000000, 0.000000)" stroke="#4990E2" sketch:type="MSShapeGroup">
                <path d="M47.01953,116.5153 C47.01953,116.5153 14.875,99.12855 10.37891,90.94496 C5.882812,82.76136 0,34.31214 0,26.43324 C0,18.55433 17.41797,9.109019 23.50977,5.1598" id="Stroke-1" stroke-linecap="round"></path>
                <path d="M48,116.5153 C48,116.5153 80.14453,99.12855 84.64062,90.94496 C89.136718,82.76136 95.01953,34.31214 95.01953,26.43324 C95.01953,18.55433 77.60156,9.109019 71.50976,5.1598" id="Stroke-2" stroke-linecap="round"></path>
                <path d="M21.0429711,0.4821 C22.7169956,-0.4843985 24.85531,0.0852646875 25.8228175,1.76103683 L27.3253025,4.36341717 C28.2911145,6.03625262 27.7135887,8.1778225 26.0429711,9.142354 L26.0429711,9.142354 C24.3689466,10.1088525 22.2306322,9.53918931 21.2631247,7.86341717 L19.7606397,5.26103683 C18.7948277,3.58820138 19.3723535,1.4466315 21.0429711,0.4821 L21.0429711,0.4821 L21.0429711,0.4821 Z" id="Stroke-7" fill="#FFFFFF"></path>
                <path d="M74.0429689,0.4821 C72.3689444,-0.4843985 70.23063,0.0852646875 69.2631225,1.76103683 L67.7606375,4.36341717 C66.7948255,6.03625262 67.3723513,8.1778225 69.0429689,9.142354 L69.0429689,9.142354 C70.7169934,10.1088525 72.8553078,9.53918931 73.8228153,7.86341717 L75.3253003,5.26103683 C76.2911123,3.58820138 75.7135865,1.4466315 74.0429689,0.4821 L74.0429689,0.4821 L74.0429689,0.4821 Z" id="Stroke-11" fill="#FFFFFF"></path>
            </g>
        </g>
    </g>
</svg>